<?xml version="1.0" encoding="UTF-8"?>
<!DOCTYPE svg PUBLIC "-//W3C//DTD SVG 1.1//EN" "http://www.w3.org/Graphics/SVG/1.1/DTD/svg11.dtd">
<svg xmlns="http://www.w3.org/2000/svg" xmlns:xlink="http://www.w3.org/1999/xlink" version="1.1" width="615px" height="162px" viewBox="-0.5 -0.5 615 162" style="background-color: rgb(255, 255, 255);"><defs/><g><path d="M 203 75 L 403 75" fill="none" stroke="#000000" stroke-width="6" stroke-miterlimit="10" pointer-events="all"/><path d="M 308 72 L 308 52 Q 308 42 308 36.47 L 308 30.94" fill="none" stroke="#ff0000" stroke-width="4" stroke-miterlimit="10" pointer-events="stroke"/><path d="M 314 38.47 L 308 26.47 L 302 38.47" fill="none" stroke="#ff0000" stroke-width="4" stroke-miterlimit="10" pointer-events="all"/><path d="M 453 75 L 467 75 L 467 50.1" fill="none" stroke="#b266ff" stroke-width="3" stroke-miterlimit="10" pointer-events="stroke"/><path d="M 467 43.35 L 471.5 52.35 L 467 50.1 L 462.5 52.35 Z" fill="#b266ff" stroke="#b266ff" stroke-width="3" stroke-miterlimit="10" pointer-events="all"/><path d="M 553 75 L 567 75 L 567 50.1" fill="none" stroke="#ff0000" stroke-width="3" stroke-miterlimit="10" pointer-events="stroke"/><path d="M 567 43.35 L 571.5 52.35 L 567 50.1 L 562.5 52.35 Z" fill="#ff0000" stroke="#ff0000" stroke-width="3" stroke-miterlimit="10" pointer-events="all"/><path d="M 403 75 L 603 75" fill="none" stroke="#000000" stroke-width="6" stroke-miterlimit="10" pointer-events="all"/><path d="M 153 75 L 153 50 L 153 50.1" fill="none" stroke="#b266ff" stroke-width="3" stroke-miterlimit="10" pointer-events="stroke"/><path d="M 153 43.35 L 157.5 52.35 L 153 50.1 L 148.5 52.35 Z" fill="#b266ff" stroke="#b266ff" stroke-width="3" stroke-miterlimit="10" pointer-events="all"/><path d="M 53 75 L 53 70 L 53 50.1" fill="none" stroke="#ff0000" stroke-width="3" stroke-miterlimit="10" pointer-events="stroke"/><path d="M 53 43.35 L 57.5 52.35 L 53 50.1 L 48.5 52.35 Z" fill="#ff0000" stroke="#ff0000" stroke-width="3" stroke-miterlimit="10" pointer-events="all"/><path d="M 3 75 L 203 75" fill="none" stroke="#000000" stroke-width="6" stroke-miterlimit="10" pointer-events="all"/><rect x="288" y="0" width="40" height="20" fill="none" stroke="none" pointer-events="all"/><g transform="translate(-0.5 -0.5)"><switch><foreignObject style="overflow: visible; text-align: left;" pointer-events="none" width="100%" height="100%" requiredFeatures="http://www.w3.org/TR/SVG11/feature#Extensibility"><div xmlns="http://www.w3.org/1999/xhtml" style="display: flex; align-items: unsafe center; justify-content: unsafe center; width: 38px; height: 1px; padding-top: 10px; margin-left: 289px;"><div style="box-sizing: border-box; font-size: 0; text-align: center; "><div style="display: inline-block; font-size: 12px; font-family: Helvetica; color: #000000; line-height: 1.2; pointer-events: all; white-space: normal; word-wrap: normal; "><font style="font-size: 16px" color="#ff8000"><b>Center</b></font></div></div></div></foreignObject><text x="308" y="14" fill="#000000" font-family="Helvetica" font-size="12px" text-anchor="middle">Center</text></switch></g><rect x="443" y="20" width="40" height="20" fill="none" stroke="none" pointer-events="all"/><g transform="translate(-0.5 -0.5)"><switch><foreignObject style="overflow: visible; text-align: left;" pointer-events="none" width="100%" height="100%" requiredFeatures="http://www.w3.org/TR/SVG11/feature#Extensibility"><div xmlns="http://www.w3.org/1999/xhtml" style="display: flex; align-items: unsafe center; justify-content: unsafe center; width: 38px; height: 1px; padding-top: 30px; margin-left: 444px;"><div style="box-sizing: border-box; font-size: 0; text-align: center; "><div style="display: inline-block; font-size: 12px; font-family: Helvetica; color: #000000; line-height: 1.2; pointer-events: all; white-space: normal; word-wrap: normal; "><font style="font-size: 16px" color="#ff8000"><b>i</b></font></div></div></div></foreignObject><text x="463" y="34" fill="#000000" font-family="Helvetica" font-size="12px" text-anchor="middle">i</text></switch></g><rect x="133" y="20" width="40" height="20" fill="none" stroke="none" pointer-events="all"/><g transform="translate(-0.5 -0.5)"><switch><foreignObject style="overflow: visible; text-align: left;" pointer-events="none" width="100%" height="100%" requiredFeatures="http://www.w3.org/TR/SVG11/feature#Extensibility"><div xmlns="http://www.w3.org/1999/xhtml" style="display: flex; align-items: unsafe center; justify-content: unsafe center; width: 38px; height: 1px; padding-top: 30px; margin-left: 134px;"><div style="box-sizing: border-box; font-size: 0; text-align: center; "><div style="display: inline-block; font-size: 12px; font-family: Helvetica; color: #000000; line-height: 1.2; pointer-events: all; white-space: normal; word-wrap: normal; "><font style="font-size: 16px" color="#ff8000"><b>j</b></font></div></div></div></foreignObject><text x="153" y="34" fill="#000000" font-family="Helvetica" font-size="12px" text-anchor="middle">j</text></switch></g><path d="M 318 -130 L 313 -130 Q 308 -130 308 -120 L 308 118.13 Q 308 128.13 303 128.13 L 300.5 128.13 Q 298 128.13 303 128.13 L 305.5 128.13 Q 308 128.13 308 138.13 L 308 376.25 Q 308 386.25 313 386.25 L 318 386.25" fill="none" stroke="#000000" stroke-miterlimit="10" transform="rotate(-90,308,128.13)" pointer-events="all"/><rect x="176.75" y="140" width="262.5" height="20" fill="none" stroke="none" pointer-events="all"/><g transform="translate(-0.5 -0.5)"><switch><foreignObject style="overflow: visible; text-align: left;" pointer-events="none" width="100%" height="100%" requiredFeatures="http://www.w3.org/TR/SVG11/feature#Extensibility"><div xmlns="http://www.w3.org/1999/xhtml" style="display: flex; align-items: unsafe center; justify-content: unsafe center; width: 261px; height: 1px; padding-top: 150px; margin-left: 178px;"><div style="box-sizing: border-box; font-size: 0; text-align: center; "><div style="display: inline-block; font-size: 12px; font-family: Helvetica; color: #000000; line-height: 1.2; pointer-events: all; white-space: normal; word-wrap: normal; "><font style="font-size: 16px" color="#ff8000"><b>Center 作用范围 </b></font><font color="#ff8000"><span style="font-size: 16px"><b>radius(center)</b></span></font></div></div></div></foreignObject><text x="308" y="154" fill="#000000" font-family="Helvetica" font-size="12px" text-anchor="middle">Center 作用范围 radius(center)</text></switch></g><path d="M 153 60 L 463 60" fill="none" stroke="#000000" stroke-width="2" stroke-miterlimit="10" stroke-dasharray="2 6" pointer-events="stroke"/><path d="M 373 80 L 373 100 M 565.5 80 L 565.5 100 M 373 90 L 565.5 90" fill="#ffffff" stroke="#b266ff" stroke-miterlimit="10" pointer-events="all"/><path d="M 613 90 L 573 90" fill="none" stroke="#000000" stroke-width="2" stroke-miterlimit="10" stroke-dasharray="2 6" pointer-events="stroke"/><path d="M 363 89.5 L 323 89.5" fill="none" stroke="#000000" stroke-width="2" stroke-miterlimit="10" stroke-dasharray="2 6" pointer-events="stroke"/><path d="M 13 80 L 13 100 M 283 80 L 283 100 M 13 90 L 283 90" fill="#ffffff" stroke="#b266ff" stroke-miterlimit="10" pointer-events="all"/><rect x="323" y="40" width="130" height="20" fill="none" stroke="none" pointer-events="all"/><g transform="translate(-0.5 -0.5)"><switch><foreignObject style="overflow: visible; text-align: left;" pointer-events="none" width="100%" height="100%" requiredFeatures="http://www.w3.org/TR/SVG11/feature#Extensibility"><div xmlns="http://www.w3.org/1999/xhtml" style="display: flex; align-items: unsafe center; justify-content: unsafe center; width: 128px; height: 1px; padding-top: 50px; margin-left: 324px;"><div style="box-sizing: border-box; font-size: 0; text-align: center; "><div style="display: inline-block; font-size: 12px; font-family: Helvetica; color: #000000; line-height: 1.2; pointer-events: all; white-space: normal; word-wrap: normal; "><b>i, j 关于 center 对称</b></div></div></div></foreignObject><text x="388" y="54" fill="#000000" font-family="Helvetica" font-size="12px" text-anchor="middle">i, j 关于 center 对称</text></switch></g><path d="M 525 50 L 520 50 Q 515 50 515 60 L 515 90 Q 515 100 510 100 L 507.5 100 Q 505 100 510 100 L 512.5 100 Q 515 100 515 110 L 515 140 Q 515 150 520 150 L 525 150" fill="none" stroke="#b266ff" stroke-miterlimit="10" transform="rotate(-90,515,100)" pointer-events="all"/><rect x="459.25" y="110" width="107.5" height="20" fill="none" stroke="none" pointer-events="all"/><g transform="translate(-0.5 -0.5)"><switch><foreignObject style="overflow: visible; text-align: left;" pointer-events="none" width="100%" height="100%" requiredFeatures="http://www.w3.org/TR/SVG11/feature#Extensibility"><div xmlns="http://www.w3.org/1999/xhtml" style="display: flex; align-items: unsafe center; justify-content: unsafe center; width: 106px; height: 1px; padding-top: 120px; margin-left: 460px;"><div style="box-sizing: border-box; font-size: 0; text-align: center; "><div style="display: inline-block; font-size: 12px; font-family: Helvetica; color: #000000; line-height: 1.2; pointer-events: all; white-space: normal; word-wrap: normal; "><b>radius(i)</b></div></div></div></foreignObject><text x="513" y="124" fill="#000000" font-family="Helvetica" font-size="12px" text-anchor="middle">radius(i)</text></switch></g><path d="M 93 30 L 88 30 Q 83 30 83 40 L 83 90 Q 83 100 78 100 L 75.5 100 Q 73 100 78 100 L 80.5 100 Q 83 100 83 110 L 83 160 Q 83 170 88 170 L 93 170" fill="none" stroke="#b266ff" stroke-miterlimit="10" transform="rotate(-90,83,100)" pointer-events="all"/><rect x="29.25" y="110" width="107.5" height="20" fill="none" stroke="none" pointer-events="all"/><g transform="translate(-0.5 -0.5)"><switch><foreignObject style="overflow: visible; text-align: left;" pointer-events="none" width="100%" height="100%" requiredFeatures="http://www.w3.org/TR/SVG11/feature#Extensibility"><div xmlns="http://www.w3.org/1999/xhtml" style="display: flex; align-items: unsafe center; justify-content: unsafe center; width: 106px; height: 1px; padding-top: 120px; margin-left: 30px;"><div style="box-sizing: border-box; font-size: 0; text-align: center; "><div style="display: inline-block; font-size: 12px; font-family: Helvetica; color: #000000; line-height: 1.2; pointer-events: all; white-space: normal; word-wrap: normal; "><b>radius(j)</b></div></div></div></foreignObject><text x="83" y="124" fill="#000000" font-family="Helvetica" font-size="12px" text-anchor="middle">radius(j)</text></switch></g></g><switch><g requiredFeatures="http://www.w3.org/TR/SVG11/feature#Extensibility"/><a transform="translate(0,-5)" xlink:href="https://desk.draw.io/support/solutions/articles/16000042487" target="_blank"><text text-anchor="middle" font-size="10px" x="50%" y="100%">Viewer does not support full SVG 1.1</text></a></switch></svg>